HIERARCHY
ROOT Hips
{
	OFFSET 0.00000 0.00000 0.00000
	CHANNELS 6 Xposition Yposition Zposition Zrotation Yrotation Xrotation 
	JOINT LHipJoint
	{
		OFFSET 0 0 0
		CHANNELS 3 Zrotation Yrotation Xrotation
		JOINT LeftHip
		{
			OFFSET 2.36090 -1.39315 1.24752
			CHANNELS 3 Zrotation Yrotation Xrotation
			JOINT LeftKnee
			{
				OFFSET 2.06810 -5.68207 0.00000
				CHANNELS 3 Zrotation Yrotation Xrotation
				JOINT LeftAnkle
				{
					OFFSET 2.46631 -6.77613 0.00000
					CHANNELS 3 Zrotation Yrotation Xrotation
					JOINT LeftToe
					{
						OFFSET 0.26031 -0.71520 1.99545
						CHANNELS 3 Zrotation Yrotation Xrotation
						End Site
						{
							OFFSET 0.00000 -0.00000 1.05957
						}
					}
				}
			}
		}
	}
	JOINT RHipJoint
	{
		OFFSET 0 0 0
		CHANNELS 3 Zrotation Yrotation Xrotation
		JOINT RightHip
		{
			OFFSET -2.25243 -1.39315 1.24752
			CHANNELS 3 Zrotation Yrotation Xrotation
			JOINT RightKnee
			{
				OFFSET -2.17343 -5.97145 0.00000
				CHANNELS 3 Zrotation Yrotation Xrotation
				JOINT RightAnkle
				{
					OFFSET -2.52372 -6.93386 0.00000
					CHANNELS 3 Zrotation Yrotation Xrotation
					JOINT RightToe
					{
						OFFSET -0.22538 -0.61923 2.11447
						CHANNELS 3 Zrotation Yrotation Xrotation
						End Site
						{
							OFFSET -0.00000 -0.00000 1.10506
						}
					}
				}
			}
		}
	}
	JOINT lowerback
	{
		OFFSET 0 0 0
		CHANNELS 3 Zrotation Yrotation Xrotation
		JOINT Chest
		{
			OFFSET 0.01594 2.13103 0.08007
			CHANNELS 3 Zrotation Yrotation Xrotation
			JOINT Chest2
			{
				OFFSET 0.01393 2.09723 0.18338
				CHANNELS 3 Zrotation Yrotation Xrotation
				JOINT lowerneck
				{
					OFFSET 0 0 0
					CHANNELS 3 Zrotation Yrotation Xrotation
					JOINT Neck
					{
						OFFSET 0.05351 1.38915 0.32494
						CHANNELS 3 Zrotation Yrotation Xrotation
						JOINT Head
						{
							OFFSET 0.00711 1.45992 -0.21666
							CHANNELS 3 Zrotation Yrotation Xrotation
							End Site
							{
								OFFSET -0.00433 1.47702 -0.11056
							}
						}
					}
				}
				JOINT LeftCollar
				{
					OFFSET 0 0 0
					CHANNELS 3 Zrotation Yrotation Xrotation
					JOINT LeftShoulder
					{
						OFFSET 2.87198 0.92249 0.11132
CHANNELS 3 Zrotation Xrotation Yrotation
						JOINT LeftElbow
						{
OFFSET 0 -5.527310 0.000000
CHANNELS 3 Zrotation Xrotation Yrotation
							JOINT LeftWrist
							{
OFFSET 0 -3.110590 0.000000
CHANNELS 3 Zrotation Xrotation Yrotation
								JOINT lhand
								{
									OFFSET 0 0 0
CHANNELS 3 Zrotation Xrotation Yrotation
									JOINT LFingers
									{
OFFSET 0 -0.419630 0.000000
CHANNELS 3 Zrotation Xrotation Yrotation
										End Site
										{
OFFSET 0 -0.338310 0.000000
										}
									}
								}
								JOINT LThumb
								{
OFFSET 0 0.000000 0.000000
CHANNELS 3 Zrotation Xrotation Yrotation
									End Site
									{
OFFSET 0 -0.343480 0.343480
									}
								}
							}
						}
					}
				}
				JOINT RightCollar
				{
					OFFSET 0 0 0
					CHANNELS 3 Zrotation Yrotation Xrotation
					JOINT RightShoulder
					{
						OFFSET -2.94710 0.68072 0.32187
CHANNELS 3 Zrotation Xrotation Yrotation
						JOINT RightElbow
						{
OFFSET 0 -5.253960 -0.000000
CHANNELS 3 Zrotation Xrotation Yrotation
							JOINT RightWrist
							{
OFFSET 0 -3.105670 0.000000
CHANNELS 3 Zrotation Xrotation Yrotation
								JOINT rhand
								{
									OFFSET 0 0 0
CHANNELS 3 Zrotation Xrotation Yrotation
									JOINT RFingers
									{
OFFSET 0 -0.498680 0.000000
CHANNELS 3 Zrotation Xrotation Yrotation
										End Site
										{
OFFSET 0 -0.402040 0.000000
										}
									}
								}
								JOINT RThumb
								{
OFFSET 0 0.000000 0.000000
CHANNELS 3 Zrotation Xrotation Yrotation
									End Site
									{
OFFSET 0 -0.408180 0.408180
									}
								}
							}
						}
					}
				}
			}
		}
	}
}
MOTION
Frames: 9
Frame Time: 0.008333333333333333
10.295800 14.329700 38.584300 162.647000 -5.637600 -165.895000 0.000000 0.000000 0.000000 -46.437100 -9.203200 -9.686100 0.123700 2.267000 6.244100 0.009600 -6.006100 -4.469900 0.380600 -3.962300 -10.970500 0.000000 0.000000 0.000000 -10.757500 25.183100 -39.319800 -11.841300 -18.322700 65.484900 0.258500 -25.503800 -34.353600 -0.007600 0.562100 -1.544500 -11.417700 4.494800 -18.842900 -11.317200 7.207800 -3.279000 -4.319000 2.498800 6.959400 18.794800 14.711500 -2.877800 -7.176000 19.005900 19.494400 -3.334600 9.556000 9.144800 -0.000000 0.000000 0.000000 21.416900 -1.463600 -53.107000 14.339000 -23.217300 2.960400 27.754100 -44.725200 -3.505200 0.000000 0.000000 0.000000 -7.125000 0.000000 0.000000 0.932400 33.938200 0.253000 -0.000000 0.000000 0.000000 0.173200 4.501600 53.189300 -15.891200 -25.372900 -3.599200 -19.054900 4.984500 18.832800 0.000000 0.000000 0.000000 7.125000 0.000000 -0.000000 9.031600 49.606500 -1.033300
10.298677 14.331963 38.589119 162.643649 -5.636426 -165.870404 0.000000 0.000000 0.000000 -46.420207 -9.196082 -9.650770 0.118263 2.216939 6.105610 0.007117 -6.001952 -4.400656 0.355035 -3.828041 -10.593352 0.000000 0.000000 0.000000 -10.775678 25.196648 -39.360805 -11.835161 -18.320112 65.465356 0.257587 -25.498256 -34.351201 -0.006837 0.532106 -1.462183 -11.564686 4.352097 -18.946711 -11.165149 7.070427 -3.271673 -4.096337 2.431734 6.983331 18.025580 13.983839 -3.712728 -6.400023 17.712199 21.388438 -3.104706 8.898116 9.630833 0.000000 0.000000 0.000000 21.138305 -1.348130 -52.580946 14.321925 -23.193031 2.953686 27.727092 -44.665088 -3.407041 0.000000 0.000000 0.000000 -7.125000 0.000000 0.000000 0.911519 33.826441 0.249824 0.000000 0.000000 0.000000 -0.058630 4.397397 53.278592 -15.865637 -25.338128 -3.588216 -19.066572 5.000250 18.816927 0.000000 0.000000 0.000000 7.125000 0.000000 0.000000 9.015508 49.592123 -1.028190
10.303462 14.333234 38.596087 162.687426 -5.614225 -165.833808 0.000000 0.000000 0.000000 -46.325393 -9.225008 -9.791288 0.121815 2.250083 6.197327 0.009500 -5.985836 -4.453276 0.324004 -3.658415 -10.117551 0.000000 0.000000 0.000000 -10.760313 25.255911 -39.454703 -11.829681 -18.317749 65.448108 0.262900 -25.501451 -34.324215 -0.005966 0.497508 -1.367122 -11.710986 4.175276 -19.038368 -10.950835 6.900387 -3.235612 -3.812259 2.353701 7.026946 16.980380 13.326776 -4.640582 -5.496469 16.490303 23.254787 -2.775153 8.262036 10.124382 0.000000 0.000000 0.000000 20.749093 -1.314228 -51.938032 14.276755 -23.129022 2.935919 27.721770 -44.612374 -3.349926 0.000000 0.000000 0.000000 -7.125000 0.000000 0.000000 0.907887 33.761832 0.250253 0.000000 0.000000 0.000000 -0.395261 4.209792 53.413946 -15.868472 -25.341975 -3.589511 -18.985507 4.935069 18.814887 0.000000 0.000000 0.000000 7.125000 0.000000 0.000000 9.092903 49.577344 -1.033851
10.307842 14.334414 38.600516 162.675840 -5.570541 -165.802723 0.000000 0.000000 0.000000 -46.320630 -9.183704 -9.759321 0.114824 2.184274 6.015164 0.007921 -5.961479 -4.394433 0.298967 -3.515804 -9.718361 0.000000 0.000000 0.000000 -10.803360 25.297637 -39.530532 -11.826735 -18.316449 65.438442 0.262849 -25.489985 -34.307896 -0.005437 0.476254 -1.308727 -11.954943 3.944803 -19.182262 -10.694230 6.705704 -3.128666 -3.433088 2.258515 7.163549 15.813960 12.702228 -5.632406 -4.638279 15.321638 25.070542 -2.427725 7.634538 10.648128 0.000000 0.000000 0.000000 20.258502 -1.336027 -51.146317 14.228525 -23.060528 2.917018 27.728121 -44.645511 -3.206012 0.000000 0.000000 0.000000 -7.125000 0.000000 0.000000 0.914974 33.599649 0.255830 0.000000 0.000000 0.000000 -0.832130 3.910751 53.650390 -15.882677 -25.361337 -3.595599 -18.908846 4.832665 18.803580 0.000000 0.000000 0.000000 7.125000 0.000000 0.000000 9.163250 49.553934 -1.036639
10.312458 14.335785 38.604592 162.643978 -5.503251 -165.767935 0.000000 0.000000 0.000000 -46.361209 -9.097383 -9.638072 0.101283 2.052222 5.650107 0.003293 -5.925810 -4.242179 0.287355 -3.447314 -9.526722 0.000000 0.000000 0.000000 -10.877432 25.343700 -39.618578 -11.824949 -18.315666 65.432913 0.267479 -25.485100 -34.273679 -0.005517 0.480455 -1.320264 -12.244129 3.695206 -19.321035 -10.424044 6.498865 -3.000857 -3.019028 2.155276 7.317703 14.607535 12.101832 -6.626419 -3.822701 14.197609 26.820674 -2.078431 7.017896 11.191617 0.000000 0.000000 0.000000 19.730612 -1.344952 -50.286748 14.192176 -23.008799 2.902774 27.700596 -44.772363 -2.979014 0.000000 0.000000 0.000000 -7.125000 0.000000 0.000000 0.895080 33.342581 0.255793 0.000000 0.000000 0.000000 -1.300699 3.594408 53.907648 -15.919052 -25.410727 -3.611196 -18.896288 4.722797 18.834323 0.000000 0.000000 0.000000 7.125000 0.000000 0.000000 9.184880 49.583368 -1.045858
10.317997 14.336956 38.610297 162.625159 -5.410574 -165.719743 0.000000 0.000000 0.000000 -46.384781 -9.008624 -9.566762 0.089363 1.928310 5.307542 -0.001141 -5.886577 -4.090679 0.280774 -3.408103 -9.417092 0.000000 0.000000 0.000000 -10.955333 25.417429 -39.751421 -11.825128 -18.315743 65.433483 0.271286 -25.472943 -34.233575 -0.005357 0.472609 -1.298610 -12.495753 3.489498 -19.383425 -10.204671 6.312278 -2.925883 -2.680719 2.063417 7.384642 13.470769 11.501398 -7.459401 -3.026703 13.076749 28.425295 -1.751441 6.408228 11.697642 0.000000 0.000000 0.000000 19.302400 -1.245302 -49.544154 14.191591 -23.007944 2.902582 27.639482 -45.036588 -2.721725 0.000000 0.000000 0.000000 -7.125000 0.000000 0.000000 0.847859 33.050544 0.248320 0.000000 0.000000 0.000000 -1.663067 3.389705 54.060443 -15.971625 -25.482157 -3.633772 -18.944478 4.620053 18.915291 0.000000 0.000000 0.000000 7.125000 0.000000 0.000000 9.163634 49.674015 -1.063959
10.323713 14.338228 38.615890 162.592190 -5.285558 -165.668636 0.000000 0.000000 0.000000 -46.422918 -8.906043 -9.530295 0.079361 1.817669 5.001945 -0.004830 -5.852765 -3.959841 0.278374 -3.393521 -9.376338 0.000000 0.000000 0.000000 -11.061288 25.499198 -39.906312 -11.828385 -18.317204 65.443933 0.266342 -25.433639 -34.206296 -0.004949 0.454663 -1.249249 -12.693360 3.372810 -19.365225 -10.102032 6.191658 -2.919152 -2.489875 2.002251 7.350201 12.544754 10.875469 -8.022405 -2.299262 11.916357 29.805122 -1.498325 5.799243 12.119417 0.000000 0.000000 0.000000 19.082350 -1.029473 -49.052484 14.225453 -23.056096 2.915816 27.543676 -45.520657 -2.406244 0.000000 0.000000 0.000000 -7.125000 0.000000 0.000000 0.772773 32.692466 0.232959 0.000000 0.000000 0.000000 -1.802117 3.351424 53.983282 -16.030032 -25.561355 -3.658908 -18.962989 4.548080 18.956596 0.000000 0.000000 0.000000 7.125000 0.000000 0.000000 9.158683 49.719293 -1.073674
10.330694 14.339399 38.624332 162.582000 -5.121342 -165.611646 0.000000 0.000000 0.000000 -46.413004 -8.819443 -9.656326 0.076320 1.782221 4.904283 -0.005820 -5.831712 -3.917039 0.276064 -3.379403 -9.336764 0.000000 0.000000 0.000000 -11.164720 25.626145 -40.112682 -11.833296 -18.319318 65.459507 0.269293 -25.404876 -34.147424 -0.004720 0.443465 -1.218552 -12.852674 3.295406 -19.286054 -10.040797 6.099916 -2.922491 -2.360911 1.956697 7.280427 11.687165 10.246985 -8.399445 -1.613198 10.777386 30.854483 -1.273286 5.214405 12.411171 0.000000 0.000000 0.000000 18.951177 -0.819198 -48.677720 14.275481 -23.127205 2.935465 27.446764 -46.062452 -2.198569 0.000000 0.000000 0.000000 -7.125000 0.000000 0.000000 0.695871 32.456384 0.213774 0.000000 0.000000 0.000000 -1.847971 3.339897 53.822890 -16.093649 -25.647451 -3.686378 -18.953490 4.464235 18.932649 0.000000 0.000000 0.000000 7.125000 0.000000 0.000000 9.160280 49.693092 -1.067907
10.338122 14.340536 38.634667 162.583703 -4.922350 -165.560189 0.000000 0.000000 0.000000 -46.374652 -8.743168 -9.925017 0.080083 1.825450 5.023540 -0.003223 -5.821910 -3.984810 0.271632 -3.352457 -9.261606 0.000000 0.000000 0.000000 -11.270446 25.784741 -40.341216 -11.837475 -18.321070 65.472724 0.279130 -25.383173 -34.057365 -0.004666 0.440749 -1.211082 -13.034306 3.174759 -19.201384 -9.922744 5.981788 -2.843735 -2.162976 1.899371 7.293816 10.846719 9.717659 -8.797744 -1.091112 9.860516 31.624543 -1.072155 4.726442 12.643432 0.000000 0.000000 0.000000 18.718591 -0.753472 -48.213840 14.299959 -23.161923 2.945064 27.353439 -46.538632 -2.059855 0.000000 0.000000 0.000000 -7.125000 0.000000 0.000000 0.621466 32.298226 0.193235 0.000000 0.000000 0.000000 -1.995395 3.173279 53.784198 -16.153586 -25.728506 -3.712399 -18.943966 4.364276 18.939906 0.000000 0.000000 0.000000 7.125000 0.000000 0.000000 9.171765 49.699179 -1.070622
